# xmcd
#
# Track frame offsets:
#	150
#	18825
#	37373
#	50730
#	69044
#	86788
#	102821
#	119043
#	136760
#	150480
#	166223
#	183028
#	200414
#	215596
#	232541
#	247271
#	263555
#	280662
#	294665
#	312874
#	325686
#
# Disc length: 4518 seconds
#
# Revision: 0
# Processed by: cddbd v1.5.2PL0 Copyright (c) Steve Scherf et al.
# Submitted via: audiograbber 1.83.01
#
DISCID=2211a415
DTITLE=Various Artist - Radioactive Rhythm and Top 40 - July 2012
DYEAR=2012
DGENRE=Pop
TTITLE0=Jennifer Lopes Feat. Flo Rida - Goin' In
TTITLE1=Will.I.Am Feat. Eva Simons - This Is Love
TTITLE2=Kylie Minogue - Timebomb
TTITLE3=Justin Bieber Feat. Ludacris - All Around The World
TTITLE4=Usher - Scream
TTITLE5=Jamie Drastik - White Boy Wasted
TTITLE6=DJ Pauly D Feat. Dash - Time Of Your Life
TTITLE7=Ying Yang Twins Feat. Greg Tecoz - Fist Pump, Jump! Jump!
TTITLE8=Breathe Carolina - Hit And Run
TTITLE9=Phillip Phillips - Home
TTITLE10=Kelly Clarkson - Dark Side
TTITLE11=Matchbox Twenty - She's So Mean
TTITLE12=Olly Murs Feat. Chiddy Bang - Heart Skips A Beat
TTITLE13=Flo Rida - Whistle
TTITLE14=Emeli Sandé - Next To Me
TTITLE15=Chiddy Bang Feat. Travie McCoy and Icona Pop - Mind Your Manners (Remix)
TTITLE16=K'naan - Hurt Me Tomorrow
TTITLE17=Chris Rene - Trouble
TTITLE18=Marianas Trench - Fallout
TTITLE19=Karmin - I Told You So
TTITLE20=The Baby's - One More Time
EXTD=
EXTT0=
EXTT1=
EXTT2=
EXTT3=
EXTT4=
EXTT5=
EXTT6=
EXTT7=
EXTT8=
EXTT9=
EXTT10=
EXTT11=
EXTT12=
EXTT13=
EXTT14=
EXTT15=
EXTT16=
EXTT17=
EXTT18=
EXTT19=
EXTT20=
PLAYORDER=
